<?xml version="1.0" encoding="UTF-8" standalone="no"?>
<!-- Created with Inkscape (http://www.inkscape.org/) -->

<svg
   width="32"
   height="32"
   viewBox="0 0 32 32"
   version="1.1"
   id="svg1"
   xmlns:xlink="http://www.w3.org/1999/xlink"
   xmlns="http://www.w3.org/2000/svg"
   xmlns:svg="http://www.w3.org/2000/svg">
  <defs
     id="defs1">
    <linearGradient
       id="swatch7">
      <stop
         style="stop-color:#6750a4;stop-opacity:1;"
         offset="0"
         id="stop7" />
    </linearGradient>
    <linearGradient
       xlink:href="#swatch7"
       id="linearGradient7"
       x1="0.88800001"
       y1="27.172709"
       x2="16.224018"
       y2="27.172709"
       gradientUnits="userSpaceOnUse"
       gradientTransform="matrix(0.73321917,-0.72005359,0.73321917,0.72005359,-2.8724501,10.075297)" />
    <linearGradient
       xlink:href="#swatch7"
       id="linearGradient8"
       x1="0.588"
       y1="12.640354"
       x2="27.059975"
       y2="12.640354"
       gradientUnits="userSpaceOnUse"
       gradientTransform="matrix(1.0285053,-1.0284805,1.0285053,1.0284805,-11.907325,17.891056)" />
    <linearGradient
       xlink:href="#swatch7"
       id="linearGradient9"
       x1="1.044"
       y1="-4.2680001"
       x2="9.3239985"
       y2="-4.2680001"
       gradientUnits="userSpaceOnUse"
       gradientTransform="matrix(0.86629639,-0.86629639,0.86629639,0.86629639,6.2035481,15.361165)" />
  </defs>
  <g
     id="layer1">
    <path
       style="font-size:12px;font-family:Rubik;-inkscape-font-specification:'Rubik, Normal';fill:url(#linearGradient9);stroke-width:1.22513"
       d="M 7.3817113,14.252306 Q 7.2673603,14.366659 7.1426135,14.366659 7.0074713,14.356245 6.9035156,14.252306 L 0.11521741,7.4640077 Q 8.6629601e-4,7.3496566 8.6629601e-4,7.2249099 -0.00952925,7.0897676 0.10482186,6.9754164 L 0.62459968,6.4556387 Q 0.7389508,6.3412877 0.87409302,6.3516829 1.0092353,6.3412816 1.1235864,6.4556387 l 2.578098,2.5780979 0.114351,-5.4368759 q 0,-0.083164 0.031187,-0.2390978 Q 3.8888043,3.191434 4.0551335,3.0251051 L 4.6164933,2.463745 q 0.083164,-0.083164 0.2079112,-0.083164 0.1247467,0 0.2079111,0.083164 0.083164,0.083164 0.093559,0.1767245 l -0.072769,6.3516849 6.8610674,0.020792 q 0.114351,0.010401 0.197516,0.093559 0.08316,0.083164 0.08316,0.2079111 0,0.1247467 -0.08316,0.2079112 l -0.582151,0.5821513 q -0.176724,0.176724 -0.332657,0.207911 -0.166329,0.02079 -0.249494,0.02079 l -5.8942807,0.05198 2.8587779,2.858778 Q 8.01584,13.34789 8.01584,13.493432 q 0,0.124746 -0.114351,0.239097 z M 13.494297,8.1397206 Q 13.390345,8.2436764 13.2552,8.2540716 13.120057,8.2436702 13.016101,8.1397206 L 8.0886074,3.2122268 Q 7.9846516,3.1082711 7.9846516,2.9835246 q 0,-0.1455377 0.1039558,-0.2494934 L 8.5875941,2.2350445 q 0.1039558,-0.1039558 0.2390978,-0.093559 0.1351422,-0.010401 0.2390978,0.093559 l 4.9274943,4.9274937 q 0.103952,0.1039558 0.103952,0.2494934 0,0.1247466 -0.103952,0.2287023 z M 6.997074,1.8088267 Q 6.8931185,1.9127823 6.7579762,1.9231779 6.6228339,1.9127823 6.5188784,1.8088267 L 5.9575183,1.2474667 Q 5.8535625,1.1435109 5.8431673,1.0083689 q 0,-0.14553774 0.1039558,-0.24949329 L 6.6020429,0.10395555 Q 6.7059987,0 6.8515362,0 6.997074,0 7.1010296,0.10395555 l 0.56136,0.56136009 Q 7.7663454,0.76927143 7.7663454,0.91480893 7.7559441,1.0499512 7.6519944,1.1539068 Z"
       id="path5" />
    <path
       style="font-size:12px;font-family:Rubik;-inkscape-font-specification:'Rubik, Normal';fill:url(#linearGradient8);stroke-width:1.4545"
       d="M 7.9061642,30.74331 Q 6.6225898,32.026853 5.0921739,32.002171 3.5494161,31.965144 2.1177368,30.681601 1.944948,30.5335 1.6981068,30.286665 1.4389234,30.027488 1.2908187,29.854703 0.46390048,28.929071 0.1676909,27.917047 -0.14086061,26.892679 0.11832313,25.917681 0.38984839,24.930339 1.2291087,24.091099 q 0.9379968,-0.937975 1.9623879,-1.172468 1.036733,-0.246835 2.0981504,0.1481 1.0614175,0.394937 2.0364402,1.369937 l 0.2098152,0.20981 q 0.1357622,0.135762 0.1234208,0.296203 0,0.1481 -0.1234208,0.271518 l -4.2703539,4.270252 q 0.012349,0.01236 0.049368,0.04936 0.037027,0.03703 0.06171,0.06171 0.5307087,0.481329 1.1724958,0.728166 0.6294453,0.234492 1.2712326,0.135762 0.6541292,-0.11108 1.1601537,-0.617088 0.4443145,-0.444304 0.6047611,-0.876267 0.1604469,-0.431961 0.185131,-0.777531 0.012349,-0.35791 -0.024682,-0.518355 -0.037026,-0.259176 0,-0.345568 0.024682,-0.09873 0.1604467,-0.234494 l 0.6047613,-0.604754 q 0.1110797,-0.111079 0.2591835,-0.111079 0.1481042,-0.02468 0.2591835,0.111079 0.1727888,0.197469 0.2591834,0.654114 0.074049,0.444303 -0.012364,1.04905 -0.074049,0.592404 -0.4072878,1.271202 -0.3332347,0.654113 -0.9626807,1.283543 z m -5.492218,-2.110442 3.3817254,-3.381644 -0.037026,-0.03702 Q 5.2032526,24.658821 4.5614652,24.436668 3.9320201,24.202174 3.3025749,24.337938 2.6607875,24.461352 2.1300788,24.992052 1.5993701,25.522747 1.4759495,26.16452 q -0.1234208,0.617088 0.1110797,1.246518 0.234499,0.629431 0.7898919,1.18481 z M 12.41101,25.991736 q -0.123417,0.123414 -0.283867,0.135763 -0.160447,-0.01236 -0.283868,-0.135763 L 6.0054804,20.154083 Q 5.8820596,20.03067 5.8697183,19.870222 q 0,-0.172785 0.1234208,-0.296203 L 6.560874,19.006298 q 0.1234209,-0.123414 0.2962096,-0.123414 0.1727888,0 0.2962094,0.123414 l 0.5430504,0.543039 q -0.1727885,-0.666455 0.049368,-1.308228 0.2221573,-0.641773 0.8392611,-1.25886 l 0.4813405,-0.48133 q 0.1234165,-0.123413 0.2838668,-0.11108 0.1604471,-0.01236 0.2838682,0.11108 l 0.506024,0.506012 q 0.123417,0.123414 0.111082,0.283862 0,0.1481 -0.123416,0.271518 l -0.7405315,0.740506 q -0.6664727,0.666455 -0.6541293,1.443987 0,0.765191 0.6664709,1.431646 l 3.6285669,3.628477 q 0.123415,0.123413 0.123415,0.296203 -0.01236,0.160443 -0.135764,0.283861 z m 7.034963,-6.787956 q -0.937997,0.937973 -1.92536,1.209492 -0.987367,0.271518 -1.950047,-0.02469 -0.975023,-0.308543 -1.826626,-1.086076 -0.222156,-0.197468 -0.543051,-0.518353 -0.333234,-0.333228 -0.518366,-0.543037 -0.789891,-0.863925 -1.086101,-1.826583 -0.283869,-0.974998 -0.01236,-1.96234 0.271525,-0.987341 1.19718,-1.912973 0.925654,-0.925633 1.913021,-1.197152 0.987363,-0.271519 1.950045,0.02468 0.975021,0.28386 1.838968,1.073733 0.209815,0.185127 0.54305,0.518355 0.320894,0.320885 0.518366,0.543037 0.77755,0.851582 1.086102,1.826581 0.29621,0.962658 0.02468,1.950001 -0.271526,0.98734 -1.209522,1.925315 z m -0.950338,-0.950317 q 0.765208,-0.765189 0.740523,-1.703164 -0.03703,-0.950316 -0.937996,-1.925315 -0.172789,-0.197467 -0.456657,-0.481328 -0.283867,-0.283861 -0.48134,-0.456646 -0.975023,-0.900949 -1.91302,-0.925633 -0.950339,-0.03703 -1.715546,0.728165 -0.765209,0.76519 -0.740524,1.727847 0.02468,0.937975 0.937996,1.900632 0.17279,0.197469 0.456658,0.481329 0.283866,0.28386 0.481339,0.456644 0.962681,0.913291 1.91302,0.950316 0.950339,0.01236 1.715547,-0.752847 z m 6.812813,-5.15885 q -0.160448,0.160443 -0.320896,0.172785 -0.172789,0 -0.382603,-0.08639 l -7.47929,-3.9740491 q -0.08639,-0.037025 -0.148104,-0.098734 -0.11108,-0.1110761 -0.11108,-0.2591772 0.01236,-0.1604429 0.11108,-0.2591771 l 0.54305,-0.543037 q 0.135762,-0.1357593 0.283867,-0.1357593 0.148106,0 0.234499,0.037025 l 6.022926,3.2829097 -3.134882,-6.0721487 q -0.06171,-0.1110749 -0.07405,-0.2715189 0,-0.1727847 0.160445,-0.3332276 l 0.419636,-0.4196199 q 0.160447,-0.1604429 0.333236,-0.1604429 0.17279,0 0.271524,0.074051 L 28.110102,7.18291 24.827114,1.160129 q -0.04936,-0.074051 -0.04936,-0.22215182 0,-0.14810118 0.135762,-0.2838606 L 25.468893,0.09873412 Q 25.56763,0 25.715734,0 q 0.148106,0 0.259184,0.11107588 0.06171,0.0617088 0.09873,0.14810119 l 3.986488,7.46676773 q 0.09873,0.1974681 0.09873,0.3702528 -0.01236,0.1604431 -0.197472,0.3455695 l -0.481341,0.4813288 q -0.160448,0.160443 -0.345578,0.1974683 -0.18513,0.012349 -0.370262,-0.098734 L 22.914075,6.0351228 25.900854,11.88512 q 0.09873,0.197468 0.08639,0.382594 -0.02468,0.172785 -0.197473,0.34557 z"
       id="path6" />
    <path
       style="font-size:12px;font-family:Rubik;-inkscape-font-specification:'Rubik, Normal';fill:url(#linearGradient7);stroke-width:1.02758"
       d="m 21.063274,31.904952 q -0.08799,0.0864 -0.20237,0.09505 -0.114381,-0.0087 -0.202368,-0.09505 l -4.17055,-4.095665 Q 16.4,27.722881 16.4,27.619194 q 0,-0.12097 0.08799,-0.207377 l 0.413536,-0.40611 q 0.08799,-0.08641 0.202368,-0.07776 0.114383,-0.0086 0.202369,0.07776 l 0.38714,0.380189 q -0.07039,-0.51844 0.08799,-1.036878 0.158375,-0.535719 0.703891,-1.071439 0.57191,-0.561642 1.223009,-0.699892 0.651099,-0.155532 1.302196,0.08641 0.6511,0.224656 1.240608,0.803579 l 2.481213,2.436661 q 0.08799,0.0864 0.08799,0.207376 0,0.103688 -0.08799,0.190094 l -0.439932,0.432032 q -0.08799,0.08641 -0.202368,0.09505 -0.114381,-0.0086 -0.202368,-0.09505 L 21.450413,26.34038 q -0.615905,-0.604846 -1.258204,-0.648048 -0.651099,-0.05185 -1.231808,0.518438 -0.545515,0.53572 -0.527917,1.209691 0.0176,0.656688 0.633501,1.261532 l 2.43722,2.39346 q 0.08799,0.0864 0.08799,0.207374 0,0.103688 -0.08799,0.190094 z m 5.331976,-5.236238 q -0.08799,0.08641 -0.202367,0.09505 -0.114382,-0.0086 -0.202369,-0.09505 l -4.17055,-4.095664 q -0.08799,-0.0864 -0.08799,-0.190094 0,-0.12097 0.08799,-0.207375 l 0.422334,-0.414752 q 0.08799,-0.08641 0.202368,-0.07776 0.114382,-0.0086 0.202368,0.07776 l 4.170551,4.095665 q 0.08799,0.08641 0.08799,0.207376 0,0.103688 -0.08799,0.190094 z m -5.499142,-5.262151 q -0.08799,0.08641 -0.202369,0.09505 -0.114382,-0.0086 -0.202368,-0.09505 l -0.475126,-0.466595 q -0.08799,-0.0864 -0.09678,-0.198734 0,-0.12097 0.08799,-0.207377 l 0.554314,-0.544359 q 0.08799,-0.08641 0.211167,-0.08641 0.123181,0 0.211167,0.08641 l 0.475126,0.466594 q 0.08799,0.08641 0.08799,0.207377 -0.0088,0.112328 -0.09678,0.198733 z m 7.637215,3.16247 q -0.08799,0.08641 -0.202369,0.09505 -0.114381,-0.0086 -0.202368,-0.09505 l -5.842289,-5.737387 q -0.08799,-0.08641 -0.08799,-0.190093 0,-0.12097 0.08799,-0.207376 l 0.413535,-0.40611 q 0.08799,-0.0864 0.202368,-0.07776 0.114383,-0.0086 0.202368,0.07776 l 3.061924,3.006943 0.290354,-3.119272 q 0.0176,-0.190094 0.044,-0.26786 0.0264,-0.09505 0.158375,-0.224657 l 0.466328,-0.457954 q 0.07919,-0.07776 0.184772,-0.07776 0.105583,0 0.184772,0.07776 0.03518,0.03456 0.05279,0.103688 0.0264,0.06049 0.0088,0.164172 l -0.343146,3.654992 4.443308,-0.06049 q 0.193567,-0.01728 0.263957,0.05184 Q 32,20.957235 32,21.06092 q 0,0.103688 -0.07919,0.181453 l -0.457527,0.449314 q -0.131979,0.12961 -0.219966,0.164173 -0.09678,0.02593 -0.281556,0.03456 l -3.836201,0.08641 1.821315,1.788614 q 0.08799,0.08641 0.08799,0.207375 0,0.103687 -0.08799,0.190094 z"
       id="path7" />
  </g>
</svg>
